<?xml version="1.0"?><!DOCTYPE svg  PUBLIC '-//W3C//DTD SVG 1.1//EN'  'http://www.w3.org/Graphics/SVG/1.1/DTD/svg11.dtd'><svg enable-background="new 0 0 48 48" height="48px" id="Layer_4" version="1.1" viewBox="0 0 48 48" width="48px" xml:space="preserve" xmlns="http://www.w3.org/2000/svg" xmlns:xlink="http://www.w3.org/1999/xlink"><g><path d="M22.915,14.823c-0.519,0.616-0.777,1.453-0.777,2.51c0,1.688,0.663,2.532,1.988,2.532c1.397,0,2.16-1.061,2.292-3.184   l0.131-2.597c-0.456-0.123-0.946-0.185-1.467-0.185C24.154,13.899,23.433,14.208,22.915,14.823z"/><path d="M0,5v2v0.562V41h48V7.562V7V5H0z M16.977,12.569c0.812-1.475,1.937-2.602,3.375-3.385c1.437-0.782,3.065-1.173,4.882-1.173   c1.571,0,2.973,0.326,4.201,0.978c1.226,0.652,2.178,1.581,2.855,2.788c0.678,1.206,1.018,2.598,1.018,4.177   c0,1.036-0.165,1.983-0.489,2.84c-0.326,0.859-0.786,1.527-1.374,2.006c-0.591,0.478-1.273,0.716-2.049,0.716   c-0.572,0-1.069-0.152-1.489-0.456s-0.702-0.717-0.846-1.239h-0.132c-0.354,0.565-0.794,0.989-1.313,1.271   c-0.522,0.282-1.109,0.423-1.761,0.423c-1.181,0-2.109-0.38-2.786-1.141s-1.016-1.79-1.016-3.086c0-1.492,0.449-2.704,1.347-3.634   c0.898-0.931,2.104-1.396,3.618-1.396c0.551,0,1.162,0.049,1.829,0.146c0.672,0.099,1.267,0.233,1.789,0.408l-0.239,5.052v0.261   c0,1.159,0.376,1.739,1.129,1.739c0.574,0,1.029-0.37,1.364-1.108c0.337-0.74,0.505-1.68,0.505-2.825   c0-1.239-0.253-2.327-0.759-3.265c-0.51-0.938-1.229-1.661-2.162-2.168c-0.937-0.507-2.007-0.76-3.217-0.76   c-1.543,0-2.885,0.319-4.025,0.956c-1.141,0.638-2.012,1.548-2.613,2.732c-0.601,1.184-0.901,2.559-0.901,4.123   c0,2.101,0.561,3.716,1.684,4.846c1.123,1.129,2.734,1.694,4.834,1.694c1.601,0,3.271-0.326,5.01-0.977v1.782   c-1.522,0.622-3.178,0.935-4.966,0.935c-2.68,0-4.77-0.723-6.27-2.168c-1.5-1.445-2.249-3.46-2.249-6.046   C15.76,15.726,16.166,14.043,16.977,12.569z M44,37H4V22.917l20,7.167l20-7.167V37z"/></g></svg>
